<?xml version="1.0" encoding="utf-8"?>
<!-- Generator: Adobe Illustrator 19.0.0, SVG Export Plug-In . SVG Version: 6.00 Build 0)  -->
<svg version="1.1" id="Layer_1" xmlns="http://www.w3.org/2000/svg" xmlns:xlink="http://www.w3.org/1999/xlink" x="0px" y="0px"
	 viewBox="-230 377 150 40" style="enable-background:new -230 377 150 40;" xml:space="preserve">
<style type="text/css">
	.st0{enable-background:new    ;}
	.st1{fill:#303030;}
	.st2{fill:#007AFF;}
	.st3{filter:url(#Adobe_OpacityMaskFilter);}
	.st4{fill:#FFFFFF;}
	.st5{opacity:0.37;mask:url(#mask-2);fill:url(#SVGID_1_);}
</style>
<title>Group 4</title>
<desc>Created with Sketch.</desc>
<g id="layout">
	<g id="aeq_splash" transform="translate(-659.000000, -2263.000000)">
		<g id="Group-4" transform="translate(659.000000, 2263.000000)">
			<g class="st0">
				<path class="st1" d="M-181.9,390.9c1.4,0,2.4,0.4,3.2,1.1c0.8,0.7,1.2,1.7,1.2,3v6h-1.8v-1.4h-0.1c-0.8,1.1-1.8,1.7-3,1.7
					c-1.1,0-2-0.3-2.7-1c-0.7-0.6-1.1-1.4-1.1-2.4c0-1,0.4-1.8,1.1-2.4s1.8-0.9,3.1-0.9c1.1,0,2,0.2,2.7,0.6v-0.4
					c0-0.6-0.3-1.2-0.8-1.6c-0.5-0.4-1.1-0.7-1.8-0.7c-1,0-1.8,0.4-2.4,1.3l-1.6-1C-184.9,391.5-183.6,390.9-181.9,390.9z
					 M-184.3,398c0,0.5,0.2,0.9,0.6,1.2c0.4,0.3,0.9,0.5,1.4,0.5c0.8,0,1.5-0.3,2.1-0.9s0.9-1.2,0.9-2c-0.6-0.5-1.4-0.7-2.4-0.7
					c-0.7,0-1.4,0.2-1.9,0.5C-184,397-184.3,397.5-184.3,398z"/>
				<path class="st1" d="M-171.1,401.3c-1.4,0-2.6-0.5-3.6-1.5c-0.9-1-1.4-2.2-1.4-3.7c0-1.5,0.5-2.7,1.4-3.7s2.1-1.5,3.5-1.5
					c1.5,0,2.6,0.5,3.5,1.4c0.9,0.9,1.3,2.3,1.3,4l0,0.2h-7.7c0,1,0.3,1.7,1,2.3c0.6,0.6,1.3,0.9,2.2,0.9c1.2,0,2.1-0.6,2.8-1.8
					l1.6,0.8c-0.4,0.8-1,1.5-1.8,1.9C-169.2,401.1-170.1,401.3-171.1,401.3z M-174,394.9h5.6c-0.1-0.7-0.3-1.2-0.8-1.7
					c-0.5-0.4-1.2-0.7-2-0.7c-0.7,0-1.3,0.2-1.8,0.6S-173.8,394.2-174,394.9z"/>
				<path class="st1" d="M-155.3,405.3h-1.8V401l0.1-1.4h-0.1c-0.3,0.5-0.8,0.9-1.4,1.2s-1.2,0.5-2,0.5c-1.3,0-2.4-0.5-3.3-1.5
					c-0.9-1-1.4-2.3-1.4-3.7c0-1.4,0.5-2.7,1.4-3.7c0.9-1,2-1.5,3.3-1.5c0.7,0,1.4,0.2,2,0.5s1.1,0.7,1.4,1.2h0.1v-1.4h1.8V405.3z
					 M-160.2,399.6c0.9,0,1.6-0.3,2.2-1c0.6-0.7,0.9-1.5,0.9-2.6c0-1-0.3-1.9-0.9-2.5c-0.6-0.7-1.3-1-2.2-1c-0.9,0-1.6,0.3-2.2,1
					c-0.6,0.7-0.9,1.5-0.9,2.5c0,1,0.3,1.9,0.9,2.5C-161.8,399.3-161.1,399.6-160.2,399.6z"/>
				<path class="st1" d="M-144.5,401h-1.8v-1.4h-0.1c-0.3,0.5-0.7,0.9-1.3,1.2s-1.2,0.5-1.8,0.5c-1.2,0-2.1-0.3-2.8-1s-1-1.7-1-2.9
					v-6.2h1.8v6c0,1.6,0.8,2.4,2.4,2.4c0.7,0,1.3-0.3,1.8-0.9c0.5-0.6,0.7-1.3,0.7-2.1v-5.4h1.8V401z"/>
				<path class="st1" d="M-139.9,387.8c0,0.4-0.1,0.7-0.4,0.9c-0.3,0.3-0.6,0.4-0.9,0.4c-0.4,0-0.7-0.1-0.9-0.4
					c-0.3-0.3-0.4-0.6-0.4-0.9c0-0.4,0.1-0.7,0.4-0.9c0.3-0.3,0.6-0.4,0.9-0.4c0.4,0,0.7,0.1,0.9,0.4
					C-140,387.2-139.9,387.5-139.9,387.8z M-140.2,391.2v9.8h-1.8v-9.8H-140.2z"/>
				<path class="st1" d="M-136,386.7V401h-1.8v-14.3H-136z"/>
				<path class="st1" d="M-131.3,387.8c0,0.4-0.1,0.7-0.4,0.9c-0.3,0.3-0.6,0.4-0.9,0.4c-0.4,0-0.7-0.1-0.9-0.4
					c-0.3-0.3-0.4-0.6-0.4-0.9c0-0.4,0.1-0.7,0.4-0.9c0.3-0.3,0.6-0.4,0.9-0.4c0.4,0,0.7,0.1,0.9,0.4
					C-131.4,387.2-131.3,387.5-131.3,387.8z M-131.7,391.2v9.8h-1.8v-9.8H-131.7z"/>
				<path class="st1" d="M-124.1,401.3c-0.7,0-1.4-0.2-2-0.5s-1-0.7-1.4-1.2h-0.1v1.4h-1.8v-14.3h1.8v4.5l-0.1,1.4h0.1
					c0.3-0.5,0.8-0.9,1.4-1.2s1.2-0.5,2-0.5c1.3,0,2.4,0.5,3.3,1.5c0.9,1,1.4,2.3,1.4,3.7c0,1.5-0.5,2.7-1.4,3.7
					C-121.7,400.8-122.8,401.3-124.1,401.3z M-124.4,399.6c0.9,0,1.6-0.3,2.2-1c0.6-0.7,0.9-1.5,0.9-2.5c0-1-0.3-1.9-0.9-2.5
					c-0.6-0.7-1.3-1-2.2-1c-0.9,0-1.6,0.3-2.2,1c-0.6,0.7-0.9,1.5-0.9,2.5c0,1,0.3,1.9,0.9,2.6C-126,399.3-125.3,399.6-124.4,399.6z
					"/>
				<path class="st1" d="M-116,401h-1.8v-9.8h1.8v1.6h0.1c0.2-0.5,0.6-1,1.1-1.3c0.6-0.4,1.2-0.5,1.7-0.5c0.5,0,1,0.1,1.4,0.2
					l-0.6,1.8c-0.2-0.1-0.6-0.1-1.1-0.1c-0.7,0-1.3,0.3-1.8,0.8c-0.5,0.6-0.8,1.2-0.8,2V401z"/>
				<path class="st1" d="M-108.2,387.8c0,0.4-0.1,0.7-0.4,0.9c-0.3,0.3-0.6,0.4-0.9,0.4c-0.4,0-0.7-0.1-0.9-0.4
					c-0.3-0.3-0.4-0.6-0.4-0.9c0-0.4,0.1-0.7,0.4-0.9c0.3-0.3,0.6-0.4,0.9-0.4c0.4,0,0.7,0.1,0.9,0.4
					C-108.3,387.2-108.2,387.5-108.2,387.8z M-108.6,391.2v9.8h-1.8v-9.8H-108.6z"/>
				<path class="st1" d="M-97.5,401h-1.8v-1.4h-0.1c-0.3,0.5-0.7,0.9-1.3,1.2s-1.2,0.5-1.8,0.5c-1.2,0-2.1-0.3-2.8-1s-1-1.7-1-2.9
					v-6.2h1.8v6c0,1.6,0.8,2.4,2.4,2.4c0.7,0,1.3-0.3,1.8-0.9c0.5-0.6,0.7-1.3,0.7-2.1v-5.4h1.8V401z"/>
				<path class="st1" d="M-93.4,401h-1.8v-9.8h1.8v1.4h0.1c0.3-0.5,0.7-0.9,1.3-1.2c0.6-0.3,1.2-0.5,1.7-0.5c0.7,0,1.4,0.2,1.9,0.5
					c0.5,0.3,0.9,0.8,1.2,1.4c0.8-1.3,1.9-1.9,3.4-1.9c1.1,0,2,0.3,2.6,1s0.9,1.7,0.9,3v6.1h-1.8v-5.8c0-0.9-0.2-1.6-0.5-2
					c-0.3-0.4-0.9-0.6-1.7-0.6c-0.7,0-1.3,0.3-1.8,0.9c-0.5,0.6-0.7,1.3-0.7,2.1v5.4h-1.8v-5.8c0-0.9-0.2-1.6-0.5-2
					c-0.3-0.4-0.9-0.6-1.7-0.6c-0.7,0-1.3,0.3-1.8,0.9c-0.5,0.6-0.7,1.3-0.7,2.1V401z"/>
			</g>
			<g id="Group-3-Copy">
				<g id="Group">
					<g id="Path-4">
						<g id="Mask">
							<path id="path-1_1_" class="st2" d="M-214.1,409.3c0,1.6,0,3.9,0,6.9c10.6-5,15.9-12.6,15.9-23c0-8.9-7.1-16.1-15.9-16.1
								s-15.9,7.2-15.9,16.1S-222.9,409.3-214.1,409.3z"/>
						</g>
						<defs>
							<filter id="Adobe_OpacityMaskFilter" filterUnits="userSpaceOnUse" x="-222.5" y="385.9" width="25.3" height="27.1">
								<feColorMatrix  type="matrix" values="1 0 0 0 0  0 1 0 0 0  0 0 1 0 0  0 0 0 1 0"/>
							</filter>
						</defs>
						<mask maskUnits="userSpaceOnUse" x="-222.5" y="385.9" width="25.3" height="27.1" id="mask-2">
							<g class="st3">
								<path id="path-1" class="st4" d="M-214.1,409.3c0,1.6,0,3.9,0,6.9c10.6-5,15.9-12.6,15.9-23c0-8.9-7.1-16.1-15.9-16.1
									s-15.9,7.2-15.9,16.1S-222.9,409.3-214.1,409.3z"/>
							</g>
						</mask>
						<linearGradient id="SVGID_1_" gradientUnits="userSpaceOnUse" x1="-217.8659" y1="390.3593" x2="-199.2022" y2="407.3866">
							<stop  offset="0" style="stop-color:#000000"/>
							<stop  offset="1" style="stop-color:#0477BE"/>
						</linearGradient>
						<polygon class="st5" points="-214,385.9 -209.8,389.9 -205.7,389.9 -197.2,399.3 -205.7,413 -222.5,397.5 -220,394.9 
							-222.5,393.1 -222.5,389.9 -218.2,389.9 						"/>
					</g>
				</g>
				<g id="Group-2" transform="translate(7.293010, 8.710917)">
					<polygon id="Path-Copy" class="st4" points="-213.1,384.2 -218.7,384.2 -221.5,381.4 -224.4,384.2 -230,384.2 -230,381 
						-225.7,381 -221.4,377 -217.5,381 -213.1,381 					"/>
					<polygon id="Path-Copy-2" class="st4" points="-230,388.7 -213.1,388.7 -213.1,385.5 -230,385.5 					"/>
				</g>
			</g>
		</g>
	</g>
</g>
</svg>
